<svg width="1033" height="485" viewBox="0 0 1033 485" fill="none" xmlns="http://www.w3.org/2000/svg">
<path d="M1033 69H979V452H921V69H833V452H775V69H687V452H0V0H1033V69Z" fill="#FFD95B"/>
<path d="M69.234 224V51.8H139.59C173.784 51.8 193.218 69.02 193.218 94.112C193.218 113.3 183.87 127.322 163.452 133.718C185.838 137.162 199.86 155.366 199.86 175.784C199.86 205.796 176.982 224 140.82 224H69.234ZM87.684 125.846H135.162C160.5 125.846 174.522 113.792 174.522 95.342C174.522 78.614 161.73 68.036 137.622 68.036H87.684V125.846ZM87.684 207.764H138.36C164.436 207.764 181.164 196.94 181.164 175.292C181.164 155.12 165.666 142.082 138.36 142.082H87.684V207.764ZM217.776 224V51.8H275.34C328.722 51.8 363.9 90.914 363.9 137.9C363.9 184.886 328.722 224 275.34 224H217.776ZM236.718 207.026H272.142C317.16 207.026 344.712 175.538 344.712 137.9C344.712 100.262 317.16 68.774 272.142 68.774H236.718V207.026ZM381.692 224V51.8H500.756V69.02H400.88V126.83H497.312V144.05H400.88V206.78H502.724V224H381.692Z" fill="black"/>
<path d="M66.3613 411V238.8H185.425V256.02H85.5493V313.83H181.981V331.05H85.5493V393.78H187.393V411H66.3613ZM249.791 413.952C219.287 413.952 199.853 397.224 194.933 371.148H212.891C216.581 387.63 228.389 399.192 249.791 399.192C269.471 399.192 281.525 389.106 281.525 374.592C281.525 363.768 274.145 356.88 256.679 353.928L232.325 349.746C210.431 346.056 198.131 336.216 198.131 318.504C198.131 296.118 218.057 282.096 245.855 282.096C274.637 282.096 292.595 297.102 294.809 320.718H276.851C274.391 307.68 264.797 296.856 245.609 296.856C227.897 296.856 215.597 304.482 215.597 316.782C215.597 326.868 221.255 331.05 236.753 333.756L262.091 338.184C286.199 342.366 298.991 353.436 298.991 373.608C298.991 398.208 277.343 413.952 249.791 413.952ZM307.795 374.346C307.795 351.468 325.015 337.2 352.567 335.478L393.157 332.772V328.098C393.157 308.664 383.071 297.102 362.899 297.102C344.941 297.102 334.117 307.434 331.411 320.718H312.961C316.651 297.84 335.101 282.096 362.653 282.096C394.879 282.096 411.853 300.546 411.853 327.852V411H393.649V391.32C388.729 403.62 374.215 413.952 352.813 413.952C325.261 413.952 307.795 397.716 307.795 374.346ZM325.999 373.854C325.999 389.106 336.085 399.93 355.273 399.93C376.675 399.93 393.157 384.924 393.157 358.848V346.302L359.701 348.516C337.561 349.992 325.999 357.864 325.999 373.854ZM429.911 374.346C429.911 351.468 447.131 337.2 474.683 335.478L515.273 332.772V328.098C515.273 308.664 505.187 297.102 485.015 297.102C467.057 297.102 456.233 307.434 453.527 320.718H435.077C438.767 297.84 457.217 282.096 484.769 282.096C516.995 282.096 533.969 300.546 533.969 327.852V411H515.765V391.32C510.845 403.62 496.331 413.952 474.929 413.952C447.377 413.952 429.911 397.716 429.911 374.346ZM448.115 373.854C448.115 389.106 458.201 399.93 477.389 399.93C498.791 399.93 515.273 384.924 515.273 358.848V346.302L481.817 348.516C459.677 349.992 448.115 357.864 448.115 373.854ZM601.256 412.476C576.656 412.476 564.356 398.946 564.356 373.116V300.792H540.248V285.048H564.356V251.592H583.052V285.048H620.444V300.792H583.052V374.1C583.052 388.368 589.94 396.24 604.208 396.24C610.604 396.24 616.508 395.01 620.69 393.78V409.77C616.754 411.492 608.882 412.476 601.256 412.476Z" fill="black"/>
</svg>
