<svg width="548" height="378" viewBox="0 0 548 378" fill="none" xmlns="http://www.w3.org/2000/svg">
<path d="M258.937 49.938C262.334 50.333 264.704 52.703 264.704 56.3765C264.704 61.0375 261.228 64 255.777 64H241.952V36.35H255.461C260.873 36.35 264.27 39.115 264.27 43.4995C264.27 47.015 262.176 49.3455 258.937 49.938ZM252.775 41.643H250.168V47.489H252.775C254.79 47.489 256.054 46.3435 256.054 44.5265C256.054 42.7095 254.829 41.643 252.775 41.643ZM250.168 58.2725H252.973C255.066 58.2725 256.33 57.0875 256.33 55.231C256.33 53.4535 255.027 52.2685 253.012 52.2685H250.168V58.2725ZM279.482 64H268.067V36.35H279.482C288.133 36.35 293.821 42.433 293.821 50.175C293.821 57.9565 288.172 64 279.482 64ZM276.283 43.065V57.285H278.771C282.919 57.285 285.289 54.046 285.289 50.175C285.289 46.304 282.919 43.065 278.771 43.065H276.283ZM314.695 64H296.92V36.35H314.695V42.512H305.136V47.331H314.695V53.2165H305.136V57.838H314.695V64ZM346.481 64H328.706V36.35H346.481V42.512H336.922V47.331H346.481V53.2165H336.922V57.838H346.481V64ZM360.567 64.869C353.338 64.869 348.954 61.156 348.954 54.9545H357.17C357.17 57.3245 358.473 58.786 360.685 58.786C362.463 58.786 363.45 57.9565 363.45 56.495C363.45 55.231 362.7 54.5595 360.843 53.8485L355.353 51.834C351.403 50.3725 349.428 47.726 349.428 44.013C349.428 38.878 353.536 35.481 360.251 35.481C366.966 35.481 371.35 38.8385 371.35 44.329H363.134C363.134 42.275 362.068 41.09 360.172 41.09C358.631 41.09 357.683 41.88 357.683 43.1835C357.683 44.2895 358.434 45.0005 360.725 45.8695L365.781 47.805C369.928 49.4245 371.666 52.071 371.666 55.784C371.666 61.393 367.361 64.869 360.567 64.869ZM399.431 64H390.899L390.03 60.8005H381.103L380.234 64H371.702L381.142 36.35H390.03L399.431 64ZM385.566 44.092L382.683 54.836H388.45L385.566 44.092ZM428.477 64H419.945L419.076 60.8005H410.149L409.28 64H400.748L410.188 36.35H419.076L428.477 64ZM414.612 44.092L411.729 54.836H417.496L414.612 44.092ZM441.187 64H432.931V43.4205H425.821V36.35H448.297V43.4205H441.187V64Z" fill="black"/>
<path d="M425.274 129.141L425.107 127.884C423.523 115.971 416.452 105.487 406.001 99.5539" stroke="black" stroke-width="8" stroke-linecap="round"/>
<path d="M39.2809 91.5863L38.1149 91.088C27.0639 86.3654 14.4391 87.0896 4.00069 93.045" stroke="black" stroke-width="8" stroke-linecap="round"/>
<path d="M485.474 132.958L485.937 131.777C490.32 120.587 499.69 112.095 511.255 108.83" stroke="black" stroke-width="8" stroke-linecap="round"/>
<path d="M95.4645 31.707L95.8319 30.4934C99.3144 18.9912 107.982 9.78323 119.252 5.61181" stroke="black" stroke-width="8" stroke-linecap="round"/>
<ellipse cx="445.501" cy="190" rx="69.5" ry="69" fill="#C591C1"/>
<circle cx="396.501" cy="281.5" r="69.5" fill="#F6A94D"/>
<circle cx="293.001" cy="308" r="70" fill="#4FBBBD"/>
<ellipse cx="201.001" cy="251.5" rx="70" ry="69.5" fill="#F08C7E"/>
<circle cx="389.001" cy="147" r="9" fill="black"/>
<circle cx="466.001" cy="147" r="9" fill="black"/>
<mask id="path-12-inside-1_2003_3" fill="white">
<path d="M446.001 141C446.001 146.304 443.894 151.391 440.143 155.142C436.392 158.893 431.305 161 426.001 161C420.696 161 415.609 158.893 411.859 155.142C408.108 151.391 406.001 146.304 406.001 141L426.001 141H446.001Z"/>
</mask>
<path d="M446.001 141C446.001 146.304 443.894 151.391 440.143 155.142C436.392 158.893 431.305 161 426.001 161C420.696 161 415.609 158.893 411.859 155.142C408.108 151.391 406.001 146.304 406.001 141L426.001 141H446.001Z" stroke="black" stroke-width="14" mask="url(#path-12-inside-1_2003_3)"/>
<path d="M435.502 268.375C445.092 275.054 450.084 286.58 448.395 298.145L448.124 300" stroke="black" stroke-width="8" stroke-linecap="round"/>
<path d="M159.713 289.347C145.985 294.077 130.773 290.982 119.984 281.266L119.001 280.38" stroke="black" stroke-width="8" stroke-linecap="round"/>
<path d="M306.745 330.165C312.188 339.418 311.359 351.069 304.661 359.459L302.337 362.37" stroke="black" stroke-width="8" stroke-linecap="round"/>
<path d="M348.77 213.474C358.9 212.864 368.699 217.602 374.597 225.86" stroke="black" stroke-width="8" stroke-linecap="round"/>
<path d="M300.194 224.521C306.443 231.491 307.611 241.647 303.107 249.854L301.277 253.189" stroke="black" stroke-width="8" stroke-linecap="round"/>
<circle cx="170.629" cy="158.628" r="69.5" transform="rotate(-71.9315 170.629 158.628)" fill="#E4C799"/>
<circle cx="95.6291" cy="93.6285" r="69.5" transform="rotate(-71.9315 95.6291 93.6285)" fill="#4FB0F0"/>
<path d="M258.185 190.779C259.912 204.055 254.567 217.268 244.094 225.607L243.721 225.904" stroke="black" stroke-width="8" stroke-linecap="round"/>
<path d="M124.027 187.462C117.964 196.321 107.064 200.523 96.6238 198.025L93.0007 197.158" stroke="black" stroke-width="8" stroke-linecap="round"/>
<path d="M229.831 105.908C229.677 115.268 223.632 123.511 214.751 126.471L211.142 127.673" stroke="black" stroke-width="8" stroke-linecap="round"/>
</svg>
