<svg width="456" height="376" viewBox="0 0 456 376" fill="none" xmlns="http://www.w3.org/2000/svg">
<path d="M421.708 0.50193L3.97622 54.8515C1.78178 55.137 0.236151 57.15 0.526996 59.3437L20.1523 207.37C20.4246 209.425 22.2211 210.931 24.2915 210.841L451.522 192.24C453.908 192.136 455.672 189.977 455.298 187.618L426.175 3.84241C425.836 1.70325 423.856 0.222494 421.708 0.50193Z" fill="#050505"/>
<path d="M142.674 120.695C155.185 125.53 163.037 133.755 164.105 147.843C165.586 167.393 153.029 182.947 115.941 185.757L45.9323 191.062L36.783 70.308L108.229 64.8947C144.024 62.1825 155.407 76.9347 156.627 93.0352C157.64 106.404 151.219 113.252 142.511 118.539L142.674 120.695ZM106.737 92.9116L74.9676 95.3187L76.5578 116.307L108.328 113.9C118.965 113.094 122.94 108.311 122.494 102.417C122.047 96.5227 117.375 92.1056 106.737 92.9116ZM112.832 158.089C123.47 157.283 127.613 150.897 127.145 144.715C126.665 138.39 121.673 133.564 111.035 134.37L78.1154 136.864L79.9126 160.583L112.832 158.089ZM224.219 56.1063C272.52 52.4466 292.008 76.8499 294.633 111.495C297.247 145.996 281.67 173.201 233.368 176.86L174.429 181.326L165.279 60.5721L224.219 56.1063ZM230.926 146.539C249.183 145.156 259.964 134.796 258.407 114.24C256.838 93.5389 244.63 85.0662 226.373 86.4494L203.804 88.1595L208.357 148.249L230.926 146.539ZM306.8 171.296L297.65 50.5426L404.029 42.4825L406.229 71.5209L335.933 76.8471L337.382 95.9665L405.09 90.8363L406.931 115.131L339.222 120.261L340.671 139.38L410.967 134.054L413.178 163.236L306.8 171.296Z" fill="white"/>
<path d="M72.073 289.404L69.5672 222.25L128.726 220.043L129.329 236.192L90.2358 237.65L90.6326 248.283L128.286 246.878L128.79 260.389L91.1367 261.794L91.5334 272.426L130.626 270.968L131.232 287.196L72.073 289.404ZM167.486 288.085C145.179 288.837 134.038 282.048 133.808 265.165L151.876 264.491C152.386 269.595 156.823 272.632 166.899 272.336C176.015 272.076 180.388 269.111 180.245 265.273C180.134 262.315 177.972 260.155 170.895 259.298L162.371 258.255C149.579 256.571 135.108 254.949 134.5 238.641C134.011 225.53 144.428 217.216 164.973 216.449C183.601 215.754 196.84 220.864 197.287 239.26L179.379 239.928C178.312 234.924 174.115 231.879 165.081 232.216C157.167 232.511 153.662 235.124 153.802 238.881C153.901 241.519 155.829 243.849 161.621 244.593L168.783 245.607C182.058 247.353 199.521 247.662 200.181 265.33C200.709 279.48 189.794 287.333 167.486 288.085ZM257.117 282.499L253.398 272.951L223.179 274.079L220.182 283.877L199.477 284.65L222.074 216.56L250.214 215.51L277.902 281.723L257.117 282.499ZM227.818 258.935L247.644 258.195L238.607 234.836L235.089 234.967L227.818 258.935ZM335.789 279.563L332.071 270.015L301.852 271.143L298.855 280.941L278.15 281.714L300.746 213.624L328.887 212.574L356.575 278.788L335.789 279.563ZM306.49 255.999L326.317 255.26L317.279 231.9L313.762 232.032L306.49 255.999ZM411.723 209.483L412.349 226.271L387.886 227.184L389.766 277.549L369.7 278.298L367.82 227.933L343.357 228.846L342.731 212.058L411.723 209.483Z" fill="#252525"/>
</svg>
