<svg width="240" height="229" viewBox="0 0 240 229" fill="none" xmlns="http://www.w3.org/2000/svg">
<g clip-path="url(#clip0_93_929)">
<path d="M-0.521532 135.181L-0.50475 134.001L-0.717285 133.586L40.9268 36.985L41.5141 36.2859L97.5896 -0.605825L99.2038 -0.685059L154.081 28.2041L206.181 17.4003L207.8 18.0358L212.318 24.384L212.775 24.5631L239.997 62.8033L240.289 63.8163L236.574 129.434L235.118 130.93L193.884 134.384L172.45 171.794L170.856 172.58L97.4497 162.634L97.3208 162.611L5.37436 142.298L4.45153 141.707L-0.521532 135.181ZM6.7854 124.215L4.45018 129.632L2.96474 133.078L3.59475 133.217L92.9723 152.961L165.247 162.763L186.575 125.549L187.822 124.755L228.5 121.355L232.105 57.6711L210.498 27.3119L209.491 25.8976L208.484 24.4817L205.81 20.725L154.167 31.4355L153.103 31.2864L98.5512 2.56662L43.6596 38.6815L6.7854 124.215Z" fill="#F2F2F2"/>
<path d="M106.353 143.934L116.286 82.2295H122.778L135.836 116.435L159.869 82.2295H166.918L156.986 143.934H151.858L160.587 89.7234L137.274 122.776H132.945L120.21 89.7234L111.481 143.934H106.353Z" fill="#F2F2F2"/>
<path d="M177.497 84.5922V67.3392H167.782V52.5788H177.497V39.4828H194.035V52.5788H208.296V67.3392H194.035V84.5922C194.035 88.7491 196.208 91.0387 200.544 91.0387C204.372 91.0387 206.851 90.5191 208.401 89.8939V104.135C205.607 105.385 202.41 106.002 197.548 106.002C183.384 106.002 177.497 97.4771 177.497 84.5922Z" fill="#F2F2F2"/>
<path d="M90.4282 68.4272V64.0591H97.0178V35.3015C97.0178 34.1323 96.4767 33.5884 95.3139 33.5884H90.0406V29.2203H97.4861C100.668 29.2203 102.218 30.698 102.218 33.5884V35.8454C102.218 36.6532 102.147 37.182 102.078 37.6936C102.074 37.7271 102.069 37.7606 102.065 37.794L101.911 38.6546H102.065C103.074 35.7724 108.267 28.2866 117.957 28.2866C127.648 28.2866 130.902 33.8238 130.902 43.4855V64.0591H137.492V68.4272H125.629V44.8901C125.629 38.6546 124.619 33.2798 117.101 33.2798C108.42 33.2798 102.291 40.9198 102.291 49.5666V64.0672H108.881V68.4353L90.4282 68.4272Z" fill="#F2F2F2"/>
<path d="M71.2412 50.0782H55.5265L27.311 122.825H39.9248L47.5722 102.454H79.0985L86.7459 122.825H99.4566L71.2412 50.0782ZM75.1658 92.2729H51.4968L63.3838 60.8847L75.1658 92.2729Z" fill="#F2F2F2"/>
</g>
<path d="M26.6812 207.5L31.9812 193.5H35.7012L41.0012 207.5H37.9812L36.6412 203.86H31.0412L29.7012 207.5H26.6812ZM31.9212 201.44H35.7612L33.8412 196.18L31.9212 201.44ZM43.0286 207.5V197.42H45.5686V198.42C46.2286 197.74 47.0886 197.22 48.2286 197.22C48.5686 197.22 48.8686 197.28 49.1086 197.36V199.86C48.7886 199.78 48.4486 199.72 47.9886 199.72C46.7486 199.72 45.9486 200.4 45.5686 201.04V207.5H43.0286ZM55.1639 205.5C56.1639 205.5 56.9639 205.04 57.4439 204.34L59.4239 205.86C58.4839 207.1 57.0039 207.9 55.1639 207.9C51.6839 207.9 49.6039 205.4 49.6039 202.46C49.6039 199.52 51.6839 197.02 55.1639 197.02C57.0039 197.02 58.4839 197.82 59.4239 199.06L57.4439 200.58C56.9639 199.88 56.1639 199.42 55.1239 199.42C53.4639 199.42 52.2439 200.7 52.2439 202.46C52.2439 204.24 53.4639 205.5 55.1639 205.5ZM60.92 207.5V192.5H63.46V198.22C64.16 197.54 65.1 197.02 66.44 197.02C68.62 197.02 70.36 198.52 70.36 201.5V207.5H67.8V201.6C67.8 200.26 67.06 199.42 65.8 199.42C64.52 199.42 63.84 200.28 63.46 200.92V207.5H60.92ZM74.1242 195.66C73.2242 195.66 72.4642 194.9 72.4642 194C72.4642 193.1 73.2242 192.34 74.1242 192.34C75.0242 192.34 75.7642 193.1 75.7642 194C75.7642 194.9 75.0242 195.66 74.1242 195.66ZM72.8442 207.5V197.42H75.3842V207.5H72.8442ZM76.5902 197.42H79.3102L81.9302 204.62L84.5302 197.42H87.2702L83.5902 207.5H80.2502L76.5902 197.42ZM97.6328 205.86C96.6928 207.12 95.1328 207.9 93.2328 207.9C89.6528 207.9 87.6328 205.4 87.6328 202.46C87.6328 199.48 89.5128 197.02 92.8128 197.02C95.6128 197.02 97.4528 198.92 97.4528 201.56C97.4528 202.12 97.3728 202.64 97.2928 202.98H90.2328C90.4728 204.86 91.6328 205.62 93.2128 205.62C94.3128 205.62 95.2728 205.14 95.8128 204.42L97.6328 205.86ZM92.7528 199.1C91.4528 199.1 90.5928 199.82 90.3128 201.14H94.9528C94.9128 200.12 94.1728 199.1 92.7528 199.1ZM98.5181 206.04L100.198 204.52C100.818 205.3 101.558 205.86 102.518 205.86C103.338 205.86 103.758 205.38 103.758 204.78C103.758 203.02 98.9381 203.68 98.9381 200.14C98.9381 198.36 100.438 197.02 102.538 197.02C104.078 197.02 105.478 197.76 106.198 198.74L104.518 200.22C103.998 199.58 103.338 199.06 102.558 199.06C101.758 199.06 101.378 199.5 101.378 200.02C101.378 201.74 106.198 201.14 106.198 204.62C106.158 206.74 104.458 207.9 102.558 207.9C100.758 207.9 99.4781 207.18 98.5181 206.04ZM113.669 207.5V193.5H117.309L123.569 203.62V193.5H126.409V207.5H122.769L116.509 197.38V207.5H113.669ZM132.288 207.8C130.268 207.8 128.888 206.64 128.888 204.78C128.888 203.26 130.068 202.12 132.228 201.76L135.308 201.24V200.98C135.308 199.92 134.508 199.24 133.348 199.24C132.368 199.24 131.608 199.7 131.068 200.44L129.208 199.02C130.108 197.78 131.588 197.02 133.428 197.02C136.348 197.02 137.848 198.76 137.848 200.98V207.5H135.308V206.52C134.668 207.3 133.468 207.8 132.288 207.8ZM131.408 204.66C131.408 205.34 131.948 205.78 132.808 205.78C133.968 205.78 134.808 205.24 135.308 204.44V203.02L132.908 203.42C131.848 203.6 131.408 204.04 131.408 204.66ZM140.997 203.82V199.7H139.117V197.42H140.997V194.9H143.557V197.42H146.637V199.7H143.557V203.82C143.557 204.94 144.157 205.38 145.157 205.38C145.857 205.38 146.317 205.3 146.657 205.16V207.38C146.157 207.6 145.557 207.7 144.717 207.7C142.197 207.7 140.997 206.28 140.997 203.82ZM149.791 195.66C148.891 195.66 148.131 194.9 148.131 194C148.131 193.1 148.891 192.34 149.791 192.34C150.691 192.34 151.431 193.1 151.431 194C151.431 194.9 150.691 195.66 149.791 195.66ZM148.511 207.5V197.42H151.051V207.5H148.511ZM158.497 197.02C161.777 197.02 164.017 199.44 164.017 202.46C164.017 205.48 161.777 207.9 158.497 207.9C155.217 207.9 152.977 205.48 152.977 202.46C152.977 199.44 155.217 197.02 158.497 197.02ZM158.537 205.5C160.157 205.5 161.377 204.2 161.377 202.46C161.377 200.7 160.157 199.42 158.537 199.42C156.857 199.42 155.617 200.7 155.617 202.46C155.617 204.22 156.857 205.5 158.537 205.5ZM165.934 207.5V197.42H168.474V198.22C169.174 197.54 170.114 197.02 171.454 197.02C173.634 197.02 175.374 198.52 175.374 201.5V207.5H172.814V201.6C172.814 200.26 172.054 199.42 170.814 199.42C169.534 199.42 168.854 200.28 168.474 200.92V207.5H165.934ZM180.698 207.8C178.678 207.8 177.298 206.64 177.298 204.78C177.298 203.26 178.478 202.12 180.638 201.76L183.718 201.24V200.98C183.718 199.92 182.918 199.24 181.758 199.24C180.778 199.24 180.018 199.7 179.478 200.44L177.618 199.02C178.518 197.78 179.998 197.02 181.838 197.02C184.758 197.02 186.258 198.76 186.258 200.98V207.5H183.718V206.52C183.078 207.3 181.878 207.8 180.698 207.8ZM179.818 204.66C179.818 205.34 180.358 205.78 181.218 205.78C182.378 205.78 183.218 205.24 183.718 204.44V203.02L181.318 203.42C180.258 203.6 179.818 204.04 179.818 204.66ZM188.767 207.5V192.5H191.307V207.5H188.767ZM203.233 205.86C202.293 207.12 200.733 207.9 198.833 207.9C195.253 207.9 193.233 205.4 193.233 202.46C193.233 199.48 195.113 197.02 198.413 197.02C201.213 197.02 203.053 198.92 203.053 201.56C203.053 202.12 202.973 202.64 202.893 202.98H195.833C196.073 204.86 197.233 205.62 198.813 205.62C199.913 205.62 200.873 205.14 201.413 204.42L203.233 205.86ZM198.353 199.1C197.053 199.1 196.193 199.82 195.913 201.14H200.553C200.513 200.12 199.773 199.1 198.353 199.1ZM204.118 206.04L205.798 204.52C206.418 205.3 207.158 205.86 208.118 205.86C208.938 205.86 209.358 205.38 209.358 204.78C209.358 203.02 204.538 203.68 204.538 200.14C204.538 198.36 206.038 197.02 208.138 197.02C209.678 197.02 211.078 197.76 211.798 198.74L210.118 200.22C209.598 199.58 208.938 199.06 208.158 199.06C207.358 199.06 206.978 199.5 206.978 200.02C206.978 201.74 211.798 201.14 211.798 204.62C211.758 206.74 210.058 207.9 208.158 207.9C206.358 207.9 205.078 207.18 204.118 206.04ZM25.1988 222.46C25.1988 219.52 27.1388 217.02 30.3188 217.02C31.6788 217.02 32.6588 217.44 33.4388 218.22V212.5H35.9988V227.5H33.4388V226.7C32.6588 227.48 31.6788 227.9 30.3188 227.9C27.1388 227.9 25.1988 225.4 25.1988 222.46ZM27.8588 222.46C27.8588 224.22 28.9588 225.5 30.6788 225.5C31.8188 225.5 32.7588 225.02 33.4388 224.1V220.82C32.7588 219.9 31.8188 219.42 30.6788 219.42C28.9588 219.42 27.8588 220.7 27.8588 222.46ZM45.2838 223.14V217.42H47.8438V223.02C47.8438 226.04 46.0838 227.9 43.1238 227.9C40.1638 227.9 38.4238 226.04 38.4238 223.02V217.42H40.9838V223.14C40.9838 224.6 41.7438 225.5 43.1438 225.5C44.5238 225.5 45.2838 224.6 45.2838 223.14ZM55.7862 227.5V213.5H59.3262L62.7462 219.38L66.1662 213.5H69.7062V227.5H66.8662V217.46L63.7462 222.7H61.7462L58.6262 217.46V227.5H55.7862ZM77.5368 217.02C80.8168 217.02 83.0568 219.44 83.0568 222.46C83.0568 225.48 80.8168 227.9 77.5368 227.9C74.2568 227.9 72.0168 225.48 72.0168 222.46C72.0168 219.44 74.2568 217.02 77.5368 217.02ZM77.5768 225.5C79.1968 225.5 80.4168 224.2 80.4168 222.46C80.4168 220.7 79.1968 219.42 77.5768 219.42C75.8968 219.42 74.6568 220.7 74.6568 222.46C74.6568 224.22 75.8968 225.5 77.5768 225.5ZM84.9735 227.5V217.42H87.5135V218.22C88.2135 217.54 89.1535 217.02 90.4935 217.02C92.6735 217.02 94.4135 218.52 94.4135 221.5V227.5H91.8535V221.6C91.8535 220.26 91.0935 219.42 89.8535 219.42C88.5735 219.42 87.8935 220.28 87.5135 220.92V227.5H84.9735ZM96.1777 222.46C96.1777 219.52 98.1177 217.02 101.298 217.02C102.658 217.02 103.638 217.44 104.418 218.22V212.5H106.978V227.5H104.418V226.7C103.638 227.48 102.658 227.9 101.298 227.9C98.1177 227.9 96.1777 225.4 96.1777 222.46ZM98.8377 222.46C98.8377 224.22 99.9377 225.5 101.658 225.5C102.798 225.5 103.738 225.02 104.418 224.1V220.82C103.738 219.9 102.798 219.42 101.658 219.42C99.9377 219.42 98.8377 220.7 98.8377 222.46ZM118.903 225.86C117.963 227.12 116.403 227.9 114.503 227.9C110.923 227.9 108.903 225.4 108.903 222.46C108.903 219.48 110.783 217.02 114.083 217.02C116.883 217.02 118.723 218.92 118.723 221.56C118.723 222.12 118.643 222.64 118.563 222.98H111.503C111.743 224.86 112.903 225.62 114.483 225.62C115.583 225.62 116.543 225.14 117.083 224.42L118.903 225.86ZM114.023 219.1C112.723 219.1 111.863 219.82 111.583 221.14H116.223C116.183 220.12 115.443 219.1 114.023 219.1ZM125.075 222.46C125.075 219.52 127.015 217.02 130.195 217.02C131.555 217.02 132.535 217.44 133.315 218.22V212.5H135.875V227.5H133.315V226.7C132.535 227.48 131.555 227.9 130.195 227.9C127.015 227.9 125.075 225.4 125.075 222.46ZM127.735 222.46C127.735 224.22 128.835 225.5 130.555 225.5C131.695 225.5 132.635 225.02 133.315 224.1V220.82C132.635 219.9 131.695 219.42 130.555 219.42C128.835 219.42 127.735 220.7 127.735 222.46ZM145.16 223.14V217.42H147.72V223.02C147.72 226.04 145.96 227.9 143 227.9C140.04 227.9 138.3 226.04 138.3 223.02V217.42H140.86V223.14C140.86 224.6 141.62 225.5 143.02 225.5C144.4 225.5 145.16 224.6 145.16 223.14ZM154.223 216.08V213.5H165.703V216.08H161.383V227.5H158.543V216.08H154.223ZM166.149 227.5V217.42H168.689V218.42C169.349 217.74 170.209 217.22 171.349 217.22C171.689 217.22 171.989 217.28 172.229 217.36V219.86C171.909 219.78 171.569 219.72 171.109 219.72C169.869 219.72 169.069 220.4 168.689 221.04V227.5H166.149ZM176.225 227.8C174.205 227.8 172.825 226.64 172.825 224.78C172.825 223.26 174.005 222.12 176.165 221.76L179.245 221.24V220.98C179.245 219.92 178.445 219.24 177.285 219.24C176.305 219.24 175.545 219.7 175.005 220.44L173.145 219.02C174.045 217.78 175.525 217.02 177.365 217.02C180.285 217.02 181.785 218.76 181.785 220.98V227.5H179.245V226.52C178.605 227.3 177.405 227.8 176.225 227.8ZM175.345 224.66C175.345 225.34 175.885 225.78 176.745 225.78C177.905 225.78 178.745 225.24 179.245 224.44V223.02L176.845 223.42C175.785 223.6 175.345 224.04 175.345 224.66ZM182.756 217.42H185.476L188.096 224.62L190.696 217.42H193.436L189.756 227.5H186.416L182.756 217.42ZM197.281 227.8C195.261 227.8 193.881 226.64 193.881 224.78C193.881 223.26 195.061 222.12 197.221 221.76L200.301 221.24V220.98C200.301 219.92 199.501 219.24 198.341 219.24C197.361 219.24 196.601 219.7 196.061 220.44L194.201 219.02C195.101 217.78 196.581 217.02 198.421 217.02C201.341 217.02 202.841 218.76 202.841 220.98V227.5H200.301V226.52C199.661 227.3 198.461 227.8 197.281 227.8ZM196.401 224.66C196.401 225.34 196.941 225.78 197.801 225.78C198.961 225.78 199.801 225.24 200.301 224.44V223.02L197.901 223.42C196.841 223.6 196.401 224.04 196.401 224.66ZM206.629 215.66C205.729 215.66 204.969 214.9 204.969 214C204.969 213.1 205.729 212.34 206.629 212.34C207.529 212.34 208.269 213.1 208.269 214C208.269 214.9 207.529 215.66 206.629 215.66ZM205.349 227.5V217.42H207.889V227.5H205.349ZM210.535 227.5V212.5H213.075V227.5H210.535Z" fill="#F2F2F2"/>
<defs>
<clipPath id="clip0_93_929">
<rect width="239.5" height="171.815" fill="white"/>
</clipPath>
</defs>
</svg>
